<svg width="129" height="33" viewBox="0 0 129 33" fill="none" xmlns="http://www.w3.org/2000/svg">
<path d="M48.8985 26.3446V13.674H44.3685V10.6465H56.9719V13.674H52.2624V26.3446H48.8985ZM62.6971 26.5689C61.4114 26.5689 60.2826 26.3073 59.3108 25.784C58.354 25.2607 57.6064 24.5431 57.0682 23.6311C56.5449 22.7191 56.2833 21.68 56.2833 20.5139C56.2833 19.5869 56.4328 18.7422 56.7318 17.9798C57.0308 17.2023 57.4495 16.537 57.9877 15.9838C58.5259 15.4307 59.1613 15.0046 59.8939 14.7056C60.6414 14.3916 61.4562 14.2346 62.3383 14.2346C63.1456 14.2346 63.8857 14.3841 64.5585 14.6831C65.2462 14.9672 65.8368 15.3783 66.3301 15.9166C66.8385 16.4398 67.2272 17.0603 67.4963 17.7779C67.7654 18.4956 67.8925 19.2805 67.8775 20.1326L67.8551 21.1194H58.3241L57.8083 19.1459H65.2313L64.85 19.5496V19.0786C64.8201 18.66 64.6856 18.2937 64.4464 17.9798C64.2221 17.6658 63.9306 17.4191 63.5717 17.2397C63.2129 17.0453 62.8167 16.9482 62.3832 16.9482C61.7104 16.9482 61.1423 17.0827 60.6788 17.3518C60.2303 17.606 59.8864 17.9798 59.6472 18.4731C59.4229 18.9515 59.3108 19.5496 59.3108 20.2672C59.3108 20.9699 59.4603 21.5903 59.7593 22.1286C60.0583 22.6518 60.4844 23.0555 61.0376 23.3396C61.6057 23.6236 62.271 23.7656 63.0335 23.7656C63.5568 23.7656 64.0352 23.6834 64.4688 23.519C64.9023 23.3545 65.3733 23.0704 65.8816 22.6668L67.3842 24.7972C66.9655 25.171 66.4946 25.4924 65.9713 25.7616C65.448 26.0307 64.9098 26.2325 64.3566 26.3671C63.8035 26.5016 63.2503 26.5689 62.6971 26.5689ZM70.2079 26.3446V14.4813H73.2802L73.3475 16.7463L72.8766 16.8809C73.0261 16.4922 73.2354 16.1408 73.5045 15.8269C73.7886 15.498 74.11 15.2214 74.4688 14.9971C74.8276 14.7728 75.2089 14.5934 75.6125 14.4589C76.0312 14.3243 76.4423 14.257 76.846 14.257C77.4739 14.257 78.0271 14.3542 78.5055 14.5486C78.9989 14.7429 79.4175 15.0494 79.7613 15.468C80.1052 15.8867 80.3668 16.4324 80.5463 17.1051L80.0753 17.0154L80.2323 16.679C80.4266 16.3352 80.6733 16.0137 80.9723 15.7147C81.2714 15.4157 81.6077 15.1616 81.9815 14.9523C82.3553 14.728 82.744 14.5561 83.1477 14.4365C83.5513 14.3169 83.9475 14.257 84.3362 14.257C85.2632 14.257 86.0257 14.4439 86.6237 14.8177C87.2367 15.1915 87.6927 15.7446 87.9917 16.4772C88.3056 17.1948 88.4626 18.0919 88.4626 19.1683V26.3446H85.2781V19.3926C85.2781 18.5853 85.1137 17.9872 84.7848 17.5985C84.4708 17.2098 83.9849 17.0154 83.3271 17.0154C82.9832 17.0154 82.6618 17.0752 82.3628 17.1948C82.0637 17.2995 81.8096 17.4565 81.6003 17.6658C81.391 17.8751 81.2265 18.1143 81.1069 18.3834C80.9873 18.6525 80.9275 18.9515 80.9275 19.2805V26.3446H77.743V19.3477C77.743 18.6002 77.5711 18.0246 77.2272 17.6209C76.8983 17.2173 76.4199 17.0154 75.792 17.0154C75.463 17.0154 75.1491 17.0752 74.8501 17.1948C74.5511 17.2995 74.2969 17.4565 74.0876 17.6658C73.8783 17.8601 73.7138 18.0994 73.5942 18.3834C73.4746 18.6525 73.4148 18.9515 73.4148 19.2805V26.3446H70.2079ZM91.9441 26.3446V10.6465H98.6046C99.5465 10.6465 100.391 10.8707 101.139 11.3193C101.886 11.7528 102.477 12.3508 102.91 13.1133C103.359 13.8609 103.583 14.713 103.583 15.6699C103.583 16.6417 103.359 17.5238 102.91 18.3161C102.477 19.0936 101.886 19.714 101.139 20.1775C100.391 20.626 99.5465 20.8503 98.6046 20.8503H95.308V26.3446H91.9441ZM95.2631 17.8003H98.2458C98.5896 17.8003 98.9036 17.7106 99.1876 17.5312C99.4717 17.3518 99.7034 17.1051 99.8828 16.7912C100.062 16.4772 100.152 16.1184 100.152 15.7147C100.152 15.3111 100.062 14.9597 99.8828 14.6607C99.7034 14.3617 99.4717 14.1225 99.1876 13.9431C98.9036 13.7637 98.5896 13.674 98.2458 13.674H95.2631V17.8003ZM106.147 26.3446V14.4813H109.219L109.331 18.2937L108.793 17.4864C108.987 16.8884 109.279 16.3427 109.668 15.8493C110.071 15.3559 110.542 14.9672 111.081 14.6831C111.634 14.3841 112.209 14.2346 112.807 14.2346C113.076 14.2346 113.323 14.257 113.547 14.3019C113.787 14.3318 113.988 14.3841 114.153 14.4589L113.301 17.9349C113.136 17.8601 112.92 17.7929 112.65 17.7331C112.396 17.6583 112.135 17.6209 111.865 17.6209C111.522 17.6209 111.193 17.6882 110.879 17.8228C110.58 17.9424 110.311 18.1218 110.071 18.361C109.847 18.5853 109.668 18.8544 109.533 19.1683C109.414 19.4823 109.354 19.8336 109.354 20.2223V26.3446H106.147ZM120.971 26.5689C119.775 26.5689 118.698 26.3073 117.741 25.784C116.8 25.2458 116.052 24.5132 115.499 23.5862C114.961 22.6593 114.691 21.6053 114.691 20.4242C114.691 19.2132 114.961 18.1442 115.499 17.2173C116.052 16.2903 116.8 15.5652 117.741 15.042C118.698 14.5037 119.775 14.2346 120.971 14.2346C122.182 14.2346 123.258 14.5037 124.2 15.042C125.142 15.5652 125.882 16.2903 126.42 17.2173C126.973 18.1442 127.25 19.2132 127.25 20.4242C127.25 21.6053 126.973 22.6593 126.42 23.5862C125.882 24.5132 125.142 25.2458 124.2 25.784C123.258 26.3073 122.182 26.5689 120.971 26.5689ZM120.971 23.8105C121.569 23.8105 122.092 23.661 122.541 23.362C123.004 23.063 123.363 22.6593 123.617 22.151C123.886 21.6427 124.013 21.0671 123.998 20.4242C124.013 19.7514 123.886 19.1609 123.617 18.6525C123.363 18.1293 123.004 17.7256 122.541 17.4415C122.092 17.1425 121.569 16.993 120.971 16.993C120.388 16.993 119.864 17.1425 119.401 17.4415C118.937 17.7405 118.571 18.1442 118.302 18.6525C118.033 19.1609 117.906 19.7514 117.921 20.4242C117.906 21.0671 118.033 21.6427 118.302 22.151C118.571 22.6593 118.937 23.063 119.401 23.362C119.864 23.661 120.388 23.8105 120.971 23.8105Z" fill="#1E1E1E"/>
<circle cx="11.7944" cy="11.7944" r="10.4335" stroke="#FF235D" stroke-width="2.72178"/>
<circle cx="23.5887" cy="19.9597" r="10.4335" stroke="#1E1E1E" stroke-width="2.72178"/>
</svg>
